<svg width="64" height="64" viewBox="0 0 64 64" fill="none" xmlns="http://www.w3.org/2000/svg">
<path d="M32 10C19.85 10 10 19.85 10 32C10 44.15 19.85 54 32 54C44.15 54 54 44.15 54 32C54 19.85 44.15 10 32 10ZM32 14C41.941 14 50 22.059 50 32C50 41.941 41.941 50 32 50C22.059 50 14 41.941 14 32C14 22.059 22.059 14 32 14ZM25.6367 23.6367C25.125 23.6367 24.6132 23.8322 24.2227 24.2227C23.4417 25.0037 23.4417 26.2698 24.2227 27.0508L29.1719 32L24.2227 36.9492C23.4417 37.7302 23.4417 38.9963 24.2227 39.7773C25.0037 40.5583 26.2698 40.5583 27.0508 39.7773L32 34.8281L36.9492 39.7773C37.7302 40.5583 38.9963 40.5583 39.7773 39.7773C40.5583 38.9963 40.5583 37.7302 39.7773 36.9492L34.8281 32L39.7773 27.0508C40.5583 26.2698 40.5583 25.0037 39.7773 24.2227C38.9963 23.4417 37.7302 23.4417 36.9492 24.2227L32 29.1719L27.0508 24.2227C26.6603 23.8322 26.1485 23.6367 25.6367 23.6367Z" fill="#2C1500"/>
</svg>
